<mxfile host="drawio-plugin" modified="2023-05-08T15:51:58.841Z" agent="5.0 (Macintosh; Intel Mac OS X 10_15_7) AppleWebKit/537.36 (KHTML, like Gecko) Chrome/104.0.5112.102 Safari/537.36" version="20.5.3" etag="IGF69hdJGZeUxaQkglwM" type="embed"><diagram id="iHB_x61vOEu1xl-rOo7U" name="Page-1"><mxGraphModel dx="623" dy="400" grid="1" gridSize="10" guides="1" tooltips="1" connect="1" arrows="1" fold="1" page="0" pageScale="1" pageWidth="850" pageHeight="1100" math="0" shadow="0"><root><mxCell id="0"/><mxCell id="1" parent="0"/><mxCell id="2" value="User" style="shape=actor;whiteSpace=wrap;html=1;fillColor=#1ba1e2;fontColor=#ffffff;strokeColor=#006EAF;" vertex="1" parent="1"><mxGeometry x="40" y="170" width="40" height="60" as="geometry"/></mxCell><mxCell id="9" value="" style="group" vertex="1" connectable="0" parent="1"><mxGeometry x="140" y="160" width="180" height="90" as="geometry"/></mxCell><mxCell id="4" value="Web server&lt;br&gt;(Frontend)" style="rounded=1;whiteSpace=wrap;html=1;fillColor=#f5f5f5;fontColor=#333333;strokeColor=#66B2FF;strokeWidth=2;" vertex="1" parent="9"><mxGeometry y="20" width="180" height="70" as="geometry"/></mxCell><mxCell id="3" value="Presentation layer" style="rounded=1;whiteSpace=wrap;html=1;fillColor=#1ba1e2;strokeColor=#006EAF;fontColor=#ffffff;" vertex="1" parent="9"><mxGeometry x="30" width="120" height="30" as="geometry"/></mxCell><mxCell id="10" value="" style="rounded=1;whiteSpace=wrap;html=1;strokeColor=#99CCFF;strokeWidth=2;fillColor=#f5f5f5;fontColor=#333333;movable=1;resizable=1;rotatable=1;deletable=1;editable=1;connectable=1;" vertex="1" parent="1"><mxGeometry x="360" y="40" width="490" height="360" as="geometry"/></mxCell><mxCell id="14" value="" style="group" vertex="1" connectable="0" parent="1"><mxGeometry x="370" y="60" width="290" height="367.78" as="geometry"/></mxCell><mxCell id="12" value="" style="rounded=1;whiteSpace=wrap;html=1;fillColor=#f5f5f5;fontColor=#333333;strokeColor=#66B2FF;strokeWidth=2;movable=1;resizable=1;rotatable=1;deletable=1;editable=1;connectable=1;" vertex="1" parent="14"><mxGeometry y="20" width="290.00000000000006" height="290" as="geometry"/></mxCell><mxCell id="13" value="Business layer" style="rounded=1;whiteSpace=wrap;html=1;fillColor=#1ba1e2;strokeColor=#006EAF;fontColor=#ffffff;movable=1;resizable=1;rotatable=1;deletable=1;editable=1;connectable=1;" vertex="1" parent="14"><mxGeometry x="48.33333333333331" width="193.33333333333334" height="33.333333333333336" as="geometry"/></mxCell><mxCell id="18" value="REST API" style="rounded=1;whiteSpace=wrap;html=1;strokeColor=#6c8ebf;strokeWidth=2;fillColor=#dae8fc;fontColor=#66B2FF;" vertex="1" parent="14"><mxGeometry x="10.604285714285716" y="153.89" width="97.35714285714286" height="60" as="geometry"/></mxCell><mxCell id="19" value="API Layer" style="text;html=1;align=center;verticalAlign=middle;resizable=0;points=[];autosize=1;strokeColor=none;fillColor=none;fontColor=#66B2FF;" vertex="1" parent="14"><mxGeometry x="27.964285714285715" y="50" width="80" height="30" as="geometry"/></mxCell><mxCell id="24" value="Checkman" style="rounded=1;whiteSpace=wrap;html=1;strokeColor=#6c8ebf;strokeWidth=2;fillColor=#dae8fc;fontColor=#66B2FF;" vertex="1" parent="14"><mxGeometry x="155.35714285714286" y="80" width="97.35714285714286" height="60" as="geometry"/></mxCell><mxCell id="25" value="Testing subsystem" style="rounded=1;whiteSpace=wrap;html=1;strokeColor=#6c8ebf;strokeWidth=2;fillColor=#dae8fc;fontColor=#66B2FF;" vertex="1" parent="14"><mxGeometry x="155.35714285714286" y="153.89" width="97.35714285714286" height="60" as="geometry"/></mxCell><mxCell id="26" value="Search engine" style="rounded=1;whiteSpace=wrap;html=1;strokeColor=#6c8ebf;strokeWidth=2;fillColor=#dae8fc;fontColor=#66B2FF;" vertex="1" parent="14"><mxGeometry x="155.35714285714286" y="230" width="97.35714285714286" height="60" as="geometry"/></mxCell><mxCell id="27" value="Backend" style="text;html=1;align=center;verticalAlign=middle;resizable=0;points=[];autosize=1;strokeColor=none;fillColor=none;fontColor=#66B2FF;" vertex="1" parent="14"><mxGeometry x="167.7857142857143" y="50" width="70" height="30" as="geometry"/></mxCell><mxCell id="46" value="" style="endArrow=classic;startArrow=classic;html=1;rounded=0;strokeWidth=3;fontColor=#66B2FF;entryX=0;entryY=0.5;entryDx=0;entryDy=0;exitX=1;exitY=0.5;exitDx=0;exitDy=0;fillColor=#1ba1e2;strokeColor=#006EAF;" edge="1" parent="14" source="18" target="24"><mxGeometry width="50" height="50" relative="1" as="geometry"><mxPoint x="134.64285714285717" y="210" as="sourcePoint"/><mxPoint x="186.42857142857147" y="160" as="targetPoint"/><Array as="points"><mxPoint x="130" y="184"/><mxPoint x="130" y="110"/></Array></mxGeometry></mxCell><mxCell id="15" value="" style="group;movable=0;resizable=0;rotatable=0;deletable=0;editable=0;connectable=0;" vertex="1" connectable="0" parent="1"><mxGeometry x="690" y="60" width="130" height="310" as="geometry"/></mxCell><mxCell id="16" value="" style="rounded=1;whiteSpace=wrap;html=1;fillColor=#f5f5f5;fontColor=#333333;strokeColor=#66B2FF;strokeWidth=2;movable=1;resizable=1;rotatable=1;deletable=1;editable=1;connectable=1;" vertex="1" parent="15"><mxGeometry y="16.857904181847843" width="130" height="293.14209581815214" as="geometry"/></mxCell><mxCell id="17" value="Data layer" style="rounded=1;whiteSpace=wrap;html=1;fillColor=#1ba1e2;strokeColor=#006EAF;fontColor=#ffffff;movable=1;resizable=1;rotatable=1;deletable=1;editable=1;connectable=1;" vertex="1" parent="15"><mxGeometry x="21.666666666666654" width="86.66666666666667" height="28.09650696974641" as="geometry"/></mxCell><mxCell id="29" value="DB" style="shape=datastore;whiteSpace=wrap;html=1;strokeColor=#6c8ebf;strokeWidth=2;fillColor=#dae8fc;fontColor=#66B2FF;" vertex="1" parent="15"><mxGeometry x="35.00000000000004" y="140" width="60" height="60" as="geometry"/></mxCell><mxCell id="30" value="Third party services" style="rounded=1;whiteSpace=wrap;html=1;strokeColor=#6c8ebf;strokeWidth=2;fillColor=#dae8fc;fontColor=#66B2FF;" vertex="1" parent="15"><mxGeometry x="18.000000000000043" y="60" width="94" height="60" as="geometry"/></mxCell><mxCell id="31" value="Elasticsearch" style="rounded=1;whiteSpace=wrap;html=1;strokeColor=#6c8ebf;strokeWidth=2;fillColor=#dae8fc;fontColor=#66B2FF;" vertex="1" parent="15"><mxGeometry x="18.000000000000043" y="230" width="94" height="60" as="geometry"/></mxCell><mxCell id="44" value="" style="endArrow=classic;html=1;rounded=0;strokeWidth=3;fontColor=#66B2FF;entryX=0.5;entryY=0;entryDx=0;entryDy=0;exitX=0.5;exitY=1;exitDx=0;exitDy=0;fillColor=#1ba1e2;strokeColor=#006EAF;" edge="1" parent="15" source="29" target="31"><mxGeometry width="50" height="50" relative="1" as="geometry"><mxPoint x="-300" y="160" as="sourcePoint"/><mxPoint x="-250" y="110" as="targetPoint"/></mxGeometry></mxCell><mxCell id="34" value="" style="endArrow=classic;startArrow=classic;html=1;rounded=0;strokeWidth=3;fontColor=#66B2FF;entryX=0;entryY=0.5;entryDx=0;entryDy=0;exitX=1;exitY=0.5;exitDx=0;exitDy=0;fillColor=#1ba1e2;strokeColor=#006EAF;edgeStyle=orthogonalEdgeStyle;" edge="1" parent="1" source="24" target="30"><mxGeometry width="50" height="50" relative="1" as="geometry"><mxPoint x="640" y="210" as="sourcePoint"/><mxPoint x="690" y="160" as="targetPoint"/><Array as="points"><mxPoint x="670" y="170"/><mxPoint x="670" y="150"/></Array></mxGeometry></mxCell><mxCell id="35" value="" style="endArrow=classic;startArrow=classic;html=1;rounded=0;strokeWidth=3;fontColor=#66B2FF;exitX=1;exitY=0.5;exitDx=0;exitDy=0;fillColor=#1ba1e2;strokeColor=#006EAF;edgeStyle=orthogonalEdgeStyle;" edge="1" parent="1" source="24" target="29"><mxGeometry width="50" height="50" relative="1" as="geometry"><mxPoint x="634" y="180" as="sourcePoint"/><mxPoint x="720" y="210" as="targetPoint"/><Array as="points"><mxPoint x="670" y="170"/><mxPoint x="670" y="230"/></Array></mxGeometry></mxCell><mxCell id="38" value="" style="endArrow=classic;startArrow=classic;html=1;rounded=0;strokeWidth=3;fontColor=#66B2FF;entryX=0;entryY=0.5;entryDx=0;entryDy=0;exitX=1;exitY=0.5;exitDx=0;exitDy=0;fillColor=#1ba1e2;strokeColor=#006EAF;" edge="1" parent="1" source="26" target="31"><mxGeometry width="50" height="50" relative="1" as="geometry"><mxPoint x="580" y="340" as="sourcePoint"/><mxPoint x="630" y="290" as="targetPoint"/></mxGeometry></mxCell><mxCell id="40" value="" style="endArrow=classic;html=1;rounded=0;strokeWidth=3;fontColor=#66B2FF;entryX=1;entryY=0.5;entryDx=0;entryDy=0;exitX=-0.004;exitY=0.484;exitDx=0;exitDy=0;exitPerimeter=0;fillColor=#1ba1e2;strokeColor=#006EAF;" edge="1" parent="1" source="10" target="4"><mxGeometry width="50" height="50" relative="1" as="geometry"><mxPoint x="350" y="210" as="sourcePoint"/><mxPoint x="400" y="160" as="targetPoint"/></mxGeometry></mxCell><mxCell id="41" value="" style="endArrow=classic;startArrow=classic;html=1;rounded=0;strokeWidth=3;fontColor=#66B2FF;entryX=1;entryY=0.75;entryDx=0;entryDy=0;exitX=0;exitY=0.5;exitDx=0;exitDy=0;fillColor=#1ba1e2;strokeColor=#006EAF;" edge="1" parent="1" source="4" target="2"><mxGeometry width="50" height="50" relative="1" as="geometry"><mxPoint x="290" y="220" as="sourcePoint"/><mxPoint x="340" y="170" as="targetPoint"/></mxGeometry></mxCell><mxCell id="45" value="" style="endArrow=classic;html=1;rounded=0;strokeWidth=3;fontColor=#66B2FF;entryX=1;entryY=0.5;entryDx=0;entryDy=0;fillColor=#1ba1e2;strokeColor=#006EAF;" edge="1" parent="1" target="25"><mxGeometry width="50" height="50" relative="1" as="geometry"><mxPoint x="670" y="210" as="sourcePoint"/><mxPoint x="680" y="220" as="targetPoint"/><Array as="points"><mxPoint x="670" y="244"/></Array></mxGeometry></mxCell><mxCell id="47" value="" style="endArrow=classic;html=1;rounded=0;strokeWidth=3;fontColor=#66B2FF;entryX=0;entryY=0.5;entryDx=0;entryDy=0;fillColor=#1ba1e2;strokeColor=#006EAF;" edge="1" parent="1" target="25"><mxGeometry width="50" height="50" relative="1" as="geometry"><mxPoint x="500" y="244" as="sourcePoint"/><mxPoint x="560" y="220" as="targetPoint"/></mxGeometry></mxCell><mxCell id="50" value="" style="endArrow=classic;html=1;rounded=0;strokeWidth=3;fontColor=#66B2FF;entryX=0;entryY=0.5;entryDx=0;entryDy=0;fillColor=#1ba1e2;strokeColor=#006EAF;" edge="1" parent="1" target="26"><mxGeometry width="50" height="50" relative="1" as="geometry"><mxPoint x="500" y="240" as="sourcePoint"/><mxPoint x="540" y="230" as="targetPoint"/><Array as="points"><mxPoint x="500" y="320"/></Array></mxGeometry></mxCell></root></mxGraphModel></diagram></mxfile>